<svg width="6" height="7" viewBox="0 0 6 7" fill="none" xmlns="http://www.w3.org/2000/svg">
<path d="M3.78261 0.0870667H2.04348C1.32435 0.0870667 0.739136 0.672284 0.739136 1.39141V5.73924C0.739136 5.97924 0.933484 6.17402 1.17392 6.17402C1.41435 6.17402 1.6087 5.97924 1.6087 5.73924V4.43489H4.2174V5.73924C4.2174 5.97924 4.41174 6.17402 4.65218 6.17402C4.89261 6.17402 5.08696 5.97924 5.08696 5.73924V1.39141C5.08696 0.672284 4.50174 0.0870667 3.78261 0.0870667ZM4.2174 3.56533H1.6087V1.39141C1.6087 1.15185 1.80348 0.956632 2.04348 0.956632H3.78261C4.02261 0.956632 4.2174 1.15185 4.2174 1.39141V3.56533Z" fill="#EBEBEB"/>
</svg>
