<svg width="20" height="5" viewBox="0 0 20 5" fill="none" xmlns="http://www.w3.org/2000/svg">
<path d="M18.6957 1.73924H11.9191L10.3074 0.1275C10.1374 -0.0425 9.86261 -0.0425 9.69261 0.1275L8.08087 1.73924H1.30435C0.585217 1.73924 0 2.32446 0 3.04359V4.34793C0 4.58793 0.194348 4.78272 0.434783 4.78272C0.675217 4.78272 0.869565 4.58793 0.869565 4.34793V3.04359C0.869565 2.80402 1.06435 2.6088 1.30435 2.6088H8.26087C8.37652 2.6088 8.48696 2.56315 8.56826 2.48141L10 1.04967L11.4317 2.48141C11.513 2.56315 11.6235 2.6088 11.7391 2.6088H18.6957C18.9357 2.6088 19.1304 2.80402 19.1304 3.04359V4.34793C19.1304 4.58793 19.3248 4.78272 19.5652 4.78272C19.8057 4.78272 20 4.58793 20 4.34793V3.04359C20 2.32446 19.4148 1.73924 18.6957 1.73924Z" fill="#EBEBEB"/>
</svg>
