<svg width="20" height="6" viewBox="0 0 20 6" fill="none" xmlns="http://www.w3.org/2000/svg">
<path d="M19.5652 0.478371C19.3248 0.478371 19.1304 0.673153 19.1304 0.913153V2.2175C19.1304 2.45707 18.9357 2.65228 18.6957 2.65228H11.7391C11.6235 2.65228 11.513 2.69794 11.4317 2.77967L10 4.21141L8.56826 2.77967C8.48696 2.69794 8.37652 2.65228 8.26087 2.65228H1.30435C1.06435 2.65228 0.869565 2.45707 0.869565 2.2175V0.913153C0.869565 0.673153 0.675217 0.478371 0.434783 0.478371C0.194348 0.478371 0 0.673153 0 0.913153V2.2175C0 2.93663 0.585217 3.52185 1.30435 3.52185H8.08087L9.69261 5.13359C9.77739 5.21837 9.8887 5.26098 10 5.26098C10.1113 5.26098 10.2226 5.21837 10.3074 5.13359L11.9191 3.52185H18.6957C19.4148 3.52185 20 2.93663 20 2.2175V0.913153C20 0.673153 19.8057 0.478371 19.5652 0.478371Z" fill="#EBEBEB"/>
</svg>
