<svg width="6" height="7" viewBox="0 0 6 7" fill="none" xmlns="http://www.w3.org/2000/svg">
<path d="M4.82613 5.30446H3.52178V0.956632H4.82613C5.06656 0.956632 5.26091 0.761849 5.26091 0.521849C5.26091 0.281849 5.06656 0.0870667 4.82613 0.0870667H1.34787C1.10743 0.0870667 0.913086 0.281849 0.913086 0.521849C0.913086 0.761849 1.10743 0.956632 1.34787 0.956632H2.65222V5.30446H1.34787C1.10743 5.30446 0.913086 5.49924 0.913086 5.73924C0.913086 5.97924 1.10743 6.17402 1.34787 6.17402H4.82613C5.06656 6.17402 5.26091 5.97924 5.26091 5.73924C5.26091 5.49924 5.06656 5.30446 4.82613 5.30446Z" fill="#EBEBEB"/>
</svg>
