<svg width="22" height="17" viewBox="0 0 22 17" fill="none" xmlns="http://www.w3.org/2000/svg">
<path d="M20.0664 0H1.93359C0.868742 0 0 0.867797 0 1.93359V14.8242C0 15.8864 0.864875 16.7578 1.93359 16.7578H20.0664C21.1286 16.7578 22 15.8929 22 14.8242V1.93359C22 0.871406 21.1351 0 20.0664 0ZM19.7994 1.28906L11.041 10.0475L2.20683 1.28906H19.7994ZM1.28906 14.5573V2.19437L7.49714 8.34922L1.28906 14.5573ZM2.20056 15.4688L8.41255 9.25676L10.5892 11.4147C10.8412 11.6646 11.2478 11.6637 11.4987 11.4128L13.6211 9.2904L19.7994 15.4688H2.20056ZM20.7109 14.5573L14.5326 8.37891L20.7109 2.20052V14.5573Z" fill="#EBEBEB"/>
</svg>
