<svg width="20" height="11" viewBox="0 0 20 11" fill="none" xmlns="http://www.w3.org/2000/svg">
<path d="M19.2857 10.8571H0.714292C0.319467 10.8571 0 10.5376 0 10.1428V5.22581C0 4.4878 0.377364 3.79445 0.98424 3.41497C6.34833 0.0688381 13.6565 0.069543 19.0151 3.41427C19.6226 3.79441 20 4.4878 20 5.22577V10.1427C20 10.5376 19.6805 10.8571 19.2857 10.8571ZM1.42858 9.42853H18.5714V5.22581C18.5714 4.97681 18.4514 4.74659 18.2582 4.62595C13.3538 1.56444 6.64968 1.56233 1.74112 4.62665C1.54861 4.74663 1.42862 4.97681 1.42862 5.22586L1.42858 9.42853Z" fill="#EBEBEB"/>
</svg>
